<svg width="168" height="25" viewBox="0 0 168 25" fill="none" xmlns="http://www.w3.org/2000/svg">
<path d="M165.324 10.179H165.716C166.08 10.179 166.163 10.319 166.163 10.934C166.163 11.577 166.051 11.689 165.716 11.689H165.324V10.179ZM165.324 16.163V13.031H165.716C166.024 13.031 166.191 13.143 166.191 13.395V15.884C166.196 15.9916 166.225 16.0968 166.275 16.192H167.785C167.673 16.08 167.673 15.968 167.673 15.409V13.815C167.673 12.892 167.393 12.473 166.778 12.389C167.037 12.3461 167.27 12.207 167.431 11.9995C167.592 11.792 167.668 11.5315 167.645 11.27V10.347C167.645 9.17299 167.058 8.86499 165.745 8.86499H163.845V16.165L165.324 16.163ZM162.472 8.86299H160.99V16.163H162.472V8.86299ZM158.193 14.008L156.907 8.86299H155.007V16.163H156.407V11.074L157.721 16.163H159.595V8.86299H158.195L158.193 14.008ZM150.782 16.161H153.858V14.825H152.292V13.007H153.802V11.693H152.292V10.211H153.858V8.89699H150.782V16.161ZM148.321 8.86099L147.621 14.51L146.921 8.86099H145.383L146.613 16.161H148.598L149.828 8.86099H148.321ZM143.232 10.091L143.568 13.531H142.841L143.232 10.091ZM142.532 16.159L142.672 14.873H143.707L143.875 16.159H145.413L144.183 8.85899H142.198L140.968 16.159H142.532ZM138.925 8.85899V10.173H139.425L138.81 11.487H139.565L140.265 10.173V8.86499L138.925 8.85899ZM139.625 16.159V14.825H138.058V8.86499H136.576V16.165L139.625 16.159ZM131.152 10.175H131.543C131.907 10.175 131.99 10.315 131.99 10.93C131.99 11.573 131.878 11.685 131.543 11.685H131.152V10.175ZM131.152 16.159V13.027H131.543C131.851 13.027 132.018 13.139 132.018 13.391V15.88C132.023 15.9876 132.052 16.0928 132.102 16.188H133.612C133.5 16.076 133.5 15.964 133.5 15.405V13.815C133.5 12.892 133.22 12.473 132.605 12.389C132.864 12.3461 133.097 12.207 133.258 11.9995C133.419 11.792 133.495 11.5315 133.472 11.27V10.347C133.472 9.17299 132.885 8.86499 131.572 8.86499H129.672V16.165L131.152 16.159ZM128.272 8.85899H126.79V16.159H128.272V8.85899ZM124.301 8.85899L123.601 14.508L122.901 8.85899H121.363L122.593 16.159H124.578L125.808 8.85899H124.301ZM118.484 10.173H118.876C119.24 10.173 119.323 10.313 119.323 10.928C119.323 11.571 119.211 11.683 118.876 11.683H118.484V10.173ZM118.484 16.157V13.025H118.876C119.184 13.025 119.351 13.137 119.351 13.389V15.878C119.356 15.9856 119.385 16.0908 119.435 16.186H120.945C120.833 16.074 120.833 15.962 120.833 15.403V13.815C120.833 12.892 120.553 12.473 119.938 12.389C120.197 12.3461 120.43 12.207 120.591 11.9995C120.752 11.792 120.828 11.5315 120.805 11.27V10.347C120.805 9.17299 120.218 8.86499 118.905 8.86499H116.975V16.165L118.484 16.157ZM112.751 16.157H115.827V14.825H114.258V13.007H115.768V11.693H114.258V10.211H115.824V8.89699H112.748L112.751 16.157ZM111.66 11.04V10.481C111.66 9.19499 111.045 8.71899 109.786 8.71899C108.36 8.71899 107.856 9.27799 107.856 10.565C107.856 12.998 110.205 12.83 110.205 14.34C110.205 14.759 110.093 14.955 109.785 14.955C109.477 14.955 109.366 14.755 109.366 14.34V13.84H107.884V14.511C107.884 15.853 108.443 16.273 109.784 16.273C111.238 16.273 111.714 15.798 111.714 14.287C111.714 11.91 109.365 11.91 109.365 10.624C109.365 10.205 109.477 10.009 109.784 10.009C110.091 10.009 110.204 10.209 110.204 10.624V11.043L111.66 11.04Z" fill="#4B3C3C"/>
<path d="M71.393 8.16498C70.246 8.16498 69.687 10.206 70.051 13.254C70.47 16.945 73.77 16.945 76.007 15.995V17.813C74.8771 18.124 73.7109 18.2838 72.539 18.288C71.7236 18.3549 70.9032 18.2469 70.1329 17.9712C69.3625 17.6955 68.66 17.2584 68.0722 16.6892C67.4844 16.12 67.0251 15.4318 66.7248 14.6707C66.4245 13.9096 66.2902 13.0932 66.331 12.276C66.331 9.92698 67.17 6.68298 71.616 6.68298C72.2271 6.63461 72.8415 6.71649 73.4185 6.92318C73.9956 7.12988 74.5223 7.4567 74.9637 7.88204C75.4051 8.30737 75.7512 8.82155 75.9792 9.39058C76.2071 9.95961 76.3117 10.5705 76.286 11.183H72.731C72.731 9.56098 72.395 8.16298 71.389 8.16298L71.393 8.16498ZM87.114 12.416H80.682V12.472C80.906 17.03 84.289 16.918 86.694 15.972V17.79C85.5937 18.1056 84.4546 18.2654 83.31 18.265C77.829 18.265 77.018 14.21 77.018 12.113C77.018 9.71298 78.053 6.63198 82.247 6.65998C85.323 6.65998 87.113 8.61798 87.113 11.302L87.114 12.416ZM83.339 10.822V10.598C83.283 9.47898 83.059 8.19798 82.109 8.19798C81.186 8.19798 80.851 9.28898 80.739 10.771V10.855H83.339V10.822ZM52.349 17.953H46.334C44.125 17.953 42.534 17.058 42.534 14.597C42.4985 13.8299 42.7258 13.0736 43.1784 12.4532C43.631 11.8328 44.2817 11.3854 45.023 11.185C45.6765 10.9768 46.3521 10.8456 47.036 10.794C47.679 10.738 48.211 10.738 48.574 10.738H48.63V10.402C48.63 7.82898 46.057 8.10898 44.63 8.52798C44.3833 8.59886 44.1406 8.68298 43.903 8.77998V7.10198C45.0551 6.81565 46.2402 6.68416 47.427 6.71098C50.643 6.71098 52.377 8.22098 52.377 10.738L52.349 17.953ZM48.634 16.411V12.133H48.578C48.271 12.1244 47.9656 12.18 47.6814 12.2961C47.3971 12.4123 47.1401 12.5864 46.927 12.8075C46.7138 13.0286 46.5491 13.2917 46.4434 13.58C46.3377 13.8683 46.2933 14.1755 46.313 14.482C46.313 16.216 47.152 16.382 47.963 16.412L48.634 16.411Z" fill="#FFCD00"/>
<path d="M27.153 7.047V17.953H23.434V7.047H27.153Z" fill="#4B3C3C"/>
<path d="M42.449 8.278C42.1358 8.2582 41.8221 8.30811 41.5306 8.42413C41.239 8.54015 40.9768 8.71939 40.7629 8.94893C40.5489 9.17848 40.3885 9.45262 40.2933 9.75161C40.198 10.0506 40.1702 10.367 40.212 10.678V17.921H36.493V10.566C36.493 8.357 38.534 6.679 41.693 6.679H42.448L42.449 8.278ZM36.437 2.461V4.027C36.073 4.027 35.71 4.027 35.346 4.055C34.9907 4.06989 34.6406 4.14566 34.311 4.279C33.9604 4.43121 33.6693 4.69416 33.4824 5.02756C33.2954 5.36097 33.2229 5.74646 33.276 6.125V7.048H35.905V8.642H33.276V17.926H29.558V6.991C29.558 2.936 32.326 2.461 35.71 2.461H36.437ZM64.681 17.953H60.934V11.409C60.934 8.836 59.955 8.696 58.585 8.668H58.333V17.952H54.614V7.019C54.922 7.047 55.928 7.075 59.284 7.075C64.684 7.075 64.709 9.592 64.709 11.605L64.681 17.953Z" fill="#FFCD00"/>
<path d="M25.303 4.81001C24.8283 4.81001 24.3643 4.66925 23.9696 4.40554C23.5749 4.14182 23.2673 3.76699 23.0856 3.32845C22.904 2.88991 22.8565 2.40735 22.9491 1.94179C23.0417 1.47624 23.2703 1.0486 23.6059 0.712955C23.9415 0.377309 24.3692 0.148731 24.8347 0.0561262C25.3003 -0.0364784 25.7829 0.0110496 26.2214 0.1927C26.6599 0.37435 27.0348 0.681964 27.2985 1.07664C27.5622 1.47132 27.703 1.93534 27.703 2.41001C27.703 3.04653 27.4501 3.65698 27 4.10707C26.5499 4.55715 25.9395 4.81001 25.303 4.81001Z" fill="#4B3C3C"/>
<path d="M25.303 25C24.8283 25 24.3643 24.8593 23.9696 24.5955C23.5749 24.3318 23.2673 23.957 23.0856 23.5185C22.904 23.0799 22.8565 22.5974 22.9491 22.1318C23.0417 21.6662 23.2703 21.2386 23.6059 20.903C23.9415 20.5673 24.3692 20.3387 24.8347 20.2461C25.3003 20.1535 25.7829 20.2011 26.2214 20.3827C26.6599 20.5644 27.0348 20.872 27.2985 21.2666C27.5622 21.6613 27.703 22.1253 27.703 22.6C27.703 23.2365 27.4501 23.847 27 24.2971C26.5499 24.7472 25.9395 25 25.303 25Z" fill="#FFCD00"/>
<path d="M0 17.953V2.461H3.747V7.047H4.922C7.522 7.047 8.809 8.054 9.452 9.228C9.92576 10.2115 10.1468 11.2976 10.095 12.388C10.095 14.122 9.564 17.925 5.257 17.925H0V17.953ZM6.32 12.36C6.32 9.983 5.761 8.529 4.055 8.529H3.747V16.443H4.111C5.761 16.443 6.32 14.849 6.32 12.36ZM21.817 12.612C21.8688 13.7024 21.6478 14.7885 21.174 15.772C20.531 16.947 19.244 17.953 16.644 17.953H15.464V22.539H11.717V7.047H16.974C21.28 7.047 21.812 10.878 21.812 12.612H21.817ZM15.464 8.529V16.447H15.772C17.478 16.447 18.037 14.993 18.037 12.616C18.037 10.127 17.478 8.533 15.828 8.533L15.464 8.529Z" fill="#4B3C3C"/>
<path d="M97.567 1.06299V23.966" stroke="#4B3C3C" stroke-width="1.589" stroke-miterlimit="10"/>
</svg>
