<svg width="305" height="99" viewBox="0 0 305 99" fill="none" xmlns="http://www.w3.org/2000/svg">
<g clip-path="url(#clip0_2230_13032)">
<path d="M36.0997 35.5682H69.1595C69.1595 39.2163 69.0178 42.5299 68.7346 45.5092C68.4513 48.4884 67.8847 51.2549 67.0349 53.8085C65.845 57.3956 64.2303 60.5876 62.1906 63.3845C60.151 66.1205 57.743 68.4309 54.9668 70.3158C52.2472 72.1398 49.2444 73.5382 45.9582 74.5111C42.672 75.4838 39.2159 75.9703 35.5898 75.9703C30.6039 75.9703 26.0429 75.0886 21.9069 73.3254C17.8276 71.5621 14.3148 69.0998 11.3686 65.9381C8.42236 62.7157 6.12772 58.8853 4.48463 54.4468C2.84156 49.9476 2.02002 44.9923 2.02002 39.5811C2.02002 34.2306 2.81323 29.3363 4.39965 24.8979C6.04272 20.3985 8.33736 16.5682 11.2836 13.4065C14.2864 10.2449 17.8842 7.78247 22.0769 6.01925C26.2695 4.25604 30.9438 3.37443 36.0997 3.37443C42.7853 3.37443 48.6494 4.92484 53.6919 8.02566C58.7345 11.1265 62.7289 15.9297 65.6751 22.4354L49.8676 29.4579C48.3944 25.6882 46.468 22.9826 44.0885 21.341C41.7655 19.6994 39.1026 18.8785 36.0997 18.8785C33.6068 18.8785 31.3405 19.3954 29.3007 20.4289C27.2611 21.4018 25.5046 22.8306 24.0316 24.7155C22.6151 26.5394 21.482 28.7586 20.6322 31.373C19.8389 33.9874 19.4422 36.9059 19.4422 40.1284C19.4422 43.0468 19.7822 45.7524 20.4621 48.2453C21.1987 50.738 22.2751 52.8965 23.6916 54.7204C25.1081 56.5445 26.8645 57.9733 28.9608 59.0068C31.0572 59.9797 33.4934 60.466 36.2696 60.466C37.9127 60.466 39.4991 60.2837 41.0289 59.9189C42.5587 59.4933 43.9184 58.8549 45.1083 58.0037C46.3548 57.0917 47.3745 55.9364 48.1678 54.538C48.961 53.1396 49.4992 51.4372 49.7825 49.4308H36.0997V35.5682ZM78.2432 27.269H93.6258V34.9299C95.2689 32.1331 97.2802 30.005 99.6599 28.5458C102.039 27.0258 104.816 26.2659 107.989 26.2659C108.385 26.2659 108.81 26.2659 109.263 26.2659C109.773 26.2659 110.34 26.3267 110.963 26.4483V42.2259C108.923 41.1315 106.714 40.5843 104.334 40.5843C100.765 40.5843 98.0735 41.7396 96.2603 44.05C94.504 46.2996 93.6258 49.6133 93.6258 53.9909V74.055H78.2432V27.269ZM133.215 27.269V74.055H117.832V27.269H133.215ZM116.812 9.30248C116.812 8.02566 117.038 6.84006 117.492 5.74565C117.945 4.59045 118.568 3.58723 119.362 2.73602C120.155 1.88482 121.062 1.21601 122.081 0.729615C123.158 0.243202 124.291 0 125.481 0C126.671 0 127.776 0.243202 128.795 0.729615C129.872 1.21601 130.807 1.88482 131.6 2.73602C132.393 3.58723 133.016 4.59045 133.47 5.74565C133.923 6.84006 134.15 8.02566 134.15 9.30248C134.15 10.5793 133.923 11.7953 133.47 12.9505C133.016 14.0449 132.393 15.0177 131.6 15.8689C130.807 16.7202 129.872 17.3889 128.795 17.8754C127.776 18.3618 126.671 18.6049 125.481 18.6049C124.291 18.6049 123.158 18.3618 122.081 17.8754C121.062 17.3889 120.155 16.7202 119.362 15.8689C118.568 15.0177 117.945 14.0449 117.492 12.9505C117.038 11.7953 116.812 10.5793 116.812 9.30248ZM143.726 27.269H159.108V33.0147C163.302 28.6978 168.004 26.5394 173.216 26.5394C179.676 26.5394 184.604 29.4579 188.004 35.2947C191.461 29.3971 196.389 26.4483 202.792 26.4483C204.832 26.4483 206.758 26.7826 208.571 27.4514C210.383 28.0594 211.942 29.0627 213.245 30.4611C214.549 31.7987 215.568 33.5619 216.305 35.7506C217.097 37.9395 217.494 40.5843 217.494 43.6851V74.055H202.112V50.9813C202.112 48.61 201.942 46.6643 201.602 45.1443C201.318 43.6243 200.866 42.4387 200.242 41.5876C199.676 40.7363 198.995 40.1588 198.203 39.8547C197.409 39.5507 196.559 39.3987 195.653 39.3987C190.724 39.3987 188.259 43.2596 188.259 50.9813V74.055H172.877V50.9813C172.877 48.61 172.735 46.6643 172.452 45.1443C172.168 43.5635 171.743 42.3171 171.176 41.4052C170.666 40.4931 169.987 39.8851 169.137 39.5811C168.288 39.2163 167.296 39.0339 166.162 39.0339C165.199 39.0339 164.292 39.1859 163.443 39.4899C162.593 39.7939 161.828 40.402 161.149 41.314C160.525 42.1651 160.015 43.3812 159.618 44.9619C159.278 46.4819 159.108 48.4884 159.108 50.9813V74.055H143.726V27.269ZM264.301 50.7988C264.301 49.3396 264.047 47.9715 263.537 46.6947C263.084 45.3571 262.405 44.202 261.498 43.2292C260.591 42.2563 259.515 41.4964 258.268 40.9491C257.077 40.3412 255.775 40.0372 254.359 40.0372C252.998 40.0372 251.724 40.3108 250.535 40.8579C249.344 41.4052 248.297 42.1651 247.39 43.138C246.54 44.1108 245.831 45.2659 245.265 46.6035C244.755 47.8804 244.5 49.2484 244.5 50.7076C244.5 52.1668 244.755 53.5348 245.265 54.8116C245.774 56.0884 246.483 57.2133 247.39 58.1861C248.297 59.098 249.344 59.8581 250.535 60.466C251.781 61.0133 253.083 61.2869 254.444 61.2869C255.803 61.2869 257.077 61.0133 258.268 60.466C259.458 59.9189 260.477 59.1588 261.328 58.1861C262.235 57.2133 262.942 56.0884 263.452 54.8116C264.019 53.5348 264.301 52.1972 264.301 50.7988ZM244.925 97.4024H229.543V27.269H244.925V32.4675C248.212 28.029 252.688 25.8098 258.353 25.8098C261.469 25.8098 264.359 26.4786 267.021 27.8163C269.741 29.0931 272.092 30.8563 274.075 33.1059C276.059 35.3555 277.588 38.0003 278.664 41.0403C279.798 44.0804 280.365 47.3332 280.365 50.7988C280.365 54.2645 279.798 57.4868 278.664 60.466C277.588 63.4454 276.059 66.0597 274.075 68.3094C272.149 70.559 269.854 72.3222 267.191 73.599C264.528 74.8758 261.639 75.5142 258.523 75.5142C253.083 75.5142 248.551 73.5078 244.925 69.495V97.4024Z" fill="black"/>
<path d="M302.886 74.0549H289.772C288.949 74.0549 288.344 73.8691 287.955 73.4976C287.607 73.0796 287.436 72.4294 287.436 71.5469V57.4045C287.436 56.522 287.607 55.895 287.955 55.5234C288.344 55.1055 288.949 54.8965 289.772 54.8965H302.886C303.708 54.8965 304.291 55.1055 304.639 55.5234C305.028 55.895 305.223 56.522 305.223 57.4045V71.5469C305.223 72.4294 305.028 73.0796 304.639 73.4976C304.291 73.8691 303.708 74.0549 302.886 74.0549Z" fill="#08E0AD"/>
</g>
<defs>
<clipPath id="clip0_2230_13032">
<rect width="305" height="99" fill="white"/>
</clipPath>
</defs>
</svg>
