<svg width="163" height="24" viewBox="0 0 163 24" fill="none" xmlns="http://www.w3.org/2000/svg">
<path fill-rule="evenodd" clip-rule="evenodd" d="M12 0H8C5.7908 0 4 1.7908 4 4C1.7908 4 0 5.7908 0 8V20H4V4H16V20H20V8C20 5.7908 18.2092 4 16 4C16 1.7908 14.2092 0 12 0ZM48 0V12C48 14.2092 49.7908 16 52 16C52 18.2092 53.7908 20 56 20H57.2918C58.9274 20 60.3984 19.0042 61.0058 17.4856L61.6 16L68 0H63.6L57.2 16H52V0H48ZM30 20H38C40.2092 20 42 18.2092 42 16C44.2092 16 46 14.2092 46 12V8C46 5.7908 44.2092 4 42 4C42 1.7908 40.2092 0 38 0H30C27.7908 0 26 1.7908 26 4C23.7908 4 22 5.7908 22 8V12C22 14.2092 23.7908 16 26 16C26 18.2092 27.7908 20 30 20ZM42 16H26V12V8V4H42V8V12V16ZM159 0H151C148.791 0 147 1.7908 147 4C144.791 4 143 5.7908 143 8C143 10.2092 144.791 12 147 12H159V16H145V20H155C157.209 20 159 18.2092 159 16C161.209 16 163 14.2092 163 12C163 9.7908 161.209 8 159 8H147V4H159V0ZM103 4V16H89V4H103ZM103 4C103 1.7908 101.209 0 99 0H93C90.7908 0 89 1.7908 89 4C86.7908 4 85 5.7908 85 8V24H89V16C89 18.2092 90.7908 20 93 20H99C101.209 20 103 18.2092 103 16C105.209 16 107 14.2092 107 12V8C107 5.7908 105.209 4 103 4ZM121 20H117C114.791 20 113 18.2092 113 16H125C125 18.2092 123.209 20 121 20ZM125 16V0H129V12C129 14.2092 127.209 16 125 16ZM113 16C110.791 16 109 14.2092 109 12V0H113V16ZM139 20H143V16H135V0H131V12C131 14.2092 132.791 16 135 16C135 18.2092 136.791 20 139 20ZM79 4V20H83V8C83 5.7908 81.2092 4 79 4ZM73.7082 0H75C77.2092 0 79 1.7908 79 4H73.8L67.4 20H63L69.4 4L69.9942 2.5144C70.6016 0.9958 72.0724 0 73.7082 0Z" fill="#BEFF19"/>
</svg>
